<svg width="10" height="28" viewBox="0 0 21 28" fill="none" xmlns="http://www.w3.org/2000/svg">
<path d="M4.43848 27.4019C3.19564 27.4019 2.24854 27.0799 1.59717 26.436C0.953288 25.7996 0.631348 24.8638 0.631348 23.6284V10.938C0.631348 9.70264 0.953288 8.76676 1.59717 8.13037C2.24854 7.48649 3.19564 7.16455 4.43848 7.16455H17.0615C18.3044 7.16455 19.2477 7.48649 19.8916 8.13037C20.543 8.76676 20.8687 9.70264 20.8687 10.938V23.6284C20.8687 24.8563 20.5542 25.7922 19.9253 26.436C19.3039 27.0799 18.4316 27.4019 17.3086 27.4019H4.43848ZM3.13574 5.40137C3.21061 4.84733 3.40153 4.41683 3.7085 4.10986C4.02295 3.8029 4.49463 3.64941 5.12354 3.64941H16.2305C16.8669 3.64941 17.3385 3.8029 17.6455 4.10986C17.96 4.41683 18.1546 4.84733 18.2295 5.40137H3.13574ZM5.04492 2.03223C5.08984 1.50814 5.26579 1.10758 5.57275 0.830566C5.88721 0.553548 6.3252 0.415039 6.88672 0.415039H14.4785C15.04 0.415039 15.4743 0.553548 15.7812 0.830566C16.0957 1.10758 16.2754 1.50814 16.3203 2.03223H5.04492Z" fill="#8E8E93"/>
</svg>
