<svg width="11" height="20" viewBox="0 0 11 20" fill="none" xmlns="http://www.w3.org/2000/svg">
<path d="M9.99805 9.56445C9.99805 9.70117 9.9707 9.83105 9.91602 9.9541C9.86589 10.0726 9.78385 10.1865 9.66992 10.2959L4.41309 15.4434C4.23535 15.6165 4.01888 15.7031 3.76367 15.7031C3.59961 15.7031 3.44694 15.6621 3.30566 15.5801C3.16439 15.498 3.05046 15.3887 2.96387 15.252C2.88184 15.1152 2.84082 14.9603 2.84082 14.7871C2.84082 14.5365 2.93652 14.3132 3.12793 14.1172L7.81055 9.56445L3.12793 5.01172C2.93652 4.82031 2.84082 4.59701 2.84082 4.3418C2.84082 4.17318 2.88184 4.02051 2.96387 3.88379C3.05046 3.74251 3.16439 3.63086 3.30566 3.54883C3.44694 3.4668 3.59961 3.42578 3.76367 3.42578C4.01888 3.42578 4.23535 3.51237 4.41309 3.68555L9.66992 8.83301C9.7793 8.94238 9.86133 9.05632 9.91602 9.1748C9.9707 9.29329 9.99805 9.42318 9.99805 9.56445Z" fill="#464649"/>
</svg>
