<svg xmlns="http://www.w3.org/2000/svg" viewBox="0 0 128 128">
  <rect width="128" height="128" rx="28" fill="#050505"/>
  <path d="M76 25c3 18 13 28 31 30v18c-11 0-21-4-30-10v26c0 21-15 34-36 34-16 0-30-10-30-27 0-19 16-30 35-28v19c-8-2-15 2-15 9 0 6 5 10 11 10 9 0 14-6 14-17V25h20z" fill="#fff"/>
  <path d="M76 25c2 11 7 20 15 25l-7 7c-10-7-16-17-18-32h10zM46 68v19c-8-2-15 2-15 9 0 3 1 5 3 7l-11 5c-7-5-12-12-12-22 0-19 16-30 35-28v10z" fill="#25f4ee" opacity=".9"/>
  <path d="M83 57c7 5 15 8 24 8v8c-11 0-21-4-30-10v26c0 21-15 34-36 34-8 0-16-3-21-7l12-6c3 2 6 3 10 3 15 0 25-9 25-25V52c4 2 9 4 16 5z" fill="#fe2c55" opacity=".85"/>
</svg>
